<svg width="32" height="32" viewBox="0 0 32 32" fill="none" xmlns="http://www.w3.org/2000/svg">
<path fill-rule="evenodd" clip-rule="evenodd" d="M16.7327 18.3067H19.0165C19.5578 18.3067 20.0066 17.8667 20.0066 17.32C20.0066 16.76 19.5578 16.32 19.0165 16.32H16.7327V14.0133C16.7327 13.4667 16.297 13.0267 15.7558 13.0267C15.2145 13.0267 14.7657 13.4667 14.7657 14.0133V16.32H12.495C11.9538 16.32 11.5049 16.76 11.5049 17.32C11.5049 17.8667 11.9538 18.3067 12.495 18.3067H14.7657V20.6133C14.7657 21.16 15.2145 21.6 15.7558 21.6C16.297 21.6 16.7327 21.16 16.7327 20.6133V18.3067ZM25.7841 12.0342C26.0944 12.0306 26.4323 12.0267 26.7393 12.0267C27.0693 12.0267 27.3333 12.2933 27.3333 12.6267V23.3467C27.3333 26.6533 24.6799 29.3333 21.3927 29.3333H10.8977C7.46534 29.3333 4.66666 26.52 4.66666 23.0533V8.68001C4.66666 5.37334 7.33333 2.66667 10.6205 2.66667H17.67C18.0132 2.66667 18.2772 2.94667 18.2772 3.28001V7.57334C18.2772 10.0133 20.2706 12.0133 22.6865 12.0267C23.2508 12.0267 23.7482 12.0309 24.1836 12.0346C24.5223 12.0375 24.8234 12.04 25.0891 12.04C25.277 12.04 25.5206 12.0372 25.7841 12.0342ZM26.1467 10.0883C25.0615 10.0923 23.7823 10.0883 22.8622 10.0789C21.4021 10.0789 20.1995 8.86427 20.1995 7.38961V3.87494C20.1995 3.30027 20.8899 3.01494 21.2846 3.4296C21.999 4.17982 22.9807 5.21103 23.9579 6.23756C24.9328 7.26168 25.9033 8.28113 26.5995 9.01227C26.9849 9.41627 26.7024 10.0869 26.1467 10.0883Z" fill="#D82F45"/>
</svg>
