<svg width="32" height="33" viewBox="0 0 32 33" fill="none" xmlns="http://www.w3.org/2000/svg">
<path d="M16 2.74699L0 10.1525L4.26667 12.0567V15.6537C2.98667 16.0768 2.13333 17.3463 2.13333 18.6158C2.13333 19.8854 2.98667 21.1549 4.26667 21.578V21.7896L2.34667 26.2329C1.70667 28.1372 2.13333 30.253 5.33333 30.253C8.53333 30.253 8.96 28.1372 8.32 26.2329L6.4 21.7896C7.68 21.1549 8.53333 20.0969 8.53333 18.6158C8.53333 17.1348 7.68 16.0768 6.4 15.6537V13.1146L16 17.5579L32 10.1525L16 2.74699ZM25.3867 16.5L15.7867 20.7317L10.6667 18.4043V18.6158C10.6667 20.0969 10.0267 21.3664 8.96 22.4244L10.24 25.3866V25.5981C10.4533 26.4445 10.6667 27.2908 10.4533 28.1372C11.9467 28.7719 13.6533 29.1951 15.7867 29.1951C22.8267 29.1951 25.3867 24.9634 25.3867 22.8475V16.5Z" fill="#24B1C5"/>
</svg>
