<svg width="20" height="32" viewBox="0 0 20 32" fill="none" xmlns="http://www.w3.org/2000/svg">
<path d="M11.8183 14.6914V6.06766C13.9345 6.66811 15.4548 8.28493 15.4548 10.1812C15.4548 10.9845 16.2688 11.6358 17.273 11.6358C18.2771 11.6358 19.0912 10.9845 19.0912 10.1812C19.0912 6.66898 15.9629 3.73033 11.8183 3.05463V1.45459C11.8183 0.651266 11.0042 0 10.0001 0C8.99591 0 8.18183 0.651266 8.18183 1.45459V3.05463C4.03723 3.73033 0.908905 6.66898 0.908905 10.1812C0.908905 13.6935 4.03723 16.632 8.18183 17.3078V25.9315C6.06553 25.331 4.54537 23.7142 4.54537 21.8179C4.54537 21.0146 3.73128 20.3633 2.72714 20.3633C1.72299 20.3633 0.908905 21.0146 0.908905 21.8179C0.908905 25.3301 4.03723 28.2688 8.18183 28.9445V30.5454C8.18183 31.3487 8.99591 32 10.0001 32C11.0042 32 11.8183 31.3487 11.8183 30.5454V28.9445C15.9629 28.2688 19.0912 25.3301 19.0912 21.8179C19.0912 18.3057 15.9628 15.3671 11.8183 14.6914ZM4.54537 10.1812C4.54537 8.28493 6.06553 6.66811 8.18183 6.06766V14.2948C6.06553 13.6943 4.54537 12.0775 4.54537 10.1812ZM11.8183 25.9315V17.7043C13.9345 18.3048 15.4548 19.9216 15.4548 21.8179C15.4548 23.7142 13.9345 25.331 11.8183 25.9315Z" fill="#6058E2"/>
</svg>
