<svg width="32" height="32" viewBox="0 0 32 32" fill="none" xmlns="http://www.w3.org/2000/svg">
<path fill-rule="evenodd" clip-rule="evenodd" d="M21.5444 10.9771C21.5444 14.11 19.0469 16.6221 15.932 16.6221C12.8172 16.6221 10.3197 14.11 10.3197 10.9771C10.3197 7.84302 12.8172 5.33333 15.932 5.33333C19.0469 5.33333 21.5444 7.84302 21.5444 10.9771ZM15.932 26.6667C11.3571 26.6667 7.45079 25.9414 7.45079 23.0402C7.45079 20.1379 11.3321 19.3862 15.932 19.3862C20.507 19.3862 24.4133 20.1114 24.4133 23.0138C24.4133 25.915 20.532 26.6667 15.932 26.6667ZM23.9428 11.079C23.9428 12.676 23.4664 14.1638 22.6307 15.4007C22.5448 15.528 22.6212 15.6997 22.7728 15.7261C22.9817 15.7621 23.1978 15.7825 23.4175 15.7885C25.6082 15.8462 27.5746 14.428 28.1178 12.293C28.9224 9.12164 26.5598 6.27452 23.5512 6.27452C23.2241 6.27452 22.9113 6.30935 22.6069 6.37179C22.5651 6.38139 22.5209 6.40061 22.497 6.43783C22.4684 6.48346 22.4899 6.5447 22.5185 6.58433C23.4223 7.85839 23.9428 9.41224 23.9428 11.079ZM27.571 18.0168C29.043 18.3061 30.0112 18.8969 30.4124 19.7555C30.7514 20.4604 30.7514 21.2782 30.4124 21.9818C29.7987 23.3135 27.8205 23.741 27.0516 23.8515C26.8929 23.8755 26.7651 23.7374 26.7818 23.5777C27.1746 19.8876 24.0502 18.138 23.242 17.7358C23.2074 17.7178 23.2002 17.6901 23.2038 17.6733C23.2062 17.6613 23.2205 17.6421 23.2468 17.6385C24.9958 17.6061 26.8761 17.8462 27.571 18.0168ZM8.58282 15.7884C8.80249 15.7824 9.01739 15.7632 9.22751 15.726C9.37913 15.6996 9.45554 15.5278 9.36958 15.4006C8.53387 14.1637 8.05752 12.6759 8.05752 11.0788C8.05752 9.41212 8.57805 7.85827 9.48181 6.58421C9.51046 6.54458 9.53076 6.48334 9.5033 6.43771C9.47942 6.40169 9.43405 6.38127 9.39346 6.37167C9.08783 6.30923 8.77503 6.2744 8.44791 6.2744C5.43936 6.2744 3.07669 9.12152 3.88256 12.2929C4.42577 14.4279 6.39207 15.8461 8.58282 15.7884ZM8.79593 17.6726C8.79951 17.6906 8.79235 17.717 8.75892 17.7362C7.94947 18.1385 4.82512 19.8881 5.2179 23.577C5.23461 23.7379 5.10806 23.8748 4.94928 23.852C4.18043 23.7415 2.20218 23.314 1.58853 21.9823C1.24828 21.2774 1.24828 20.4609 1.58853 19.756C1.98967 18.8974 2.95671 18.3066 4.42875 18.016C5.12478 17.8467 7.00393 17.6066 8.75414 17.639C8.78041 17.6426 8.79354 17.6618 8.79593 17.6726Z" fill="#423DDB"/>
</svg>
