<svg width="44" height="44" viewBox="0 0 44 44" fill="none" xmlns="http://www.w3.org/2000/svg">
<path d="M28.875 22C27.1081 22 25.3997 21.2111 24.0625 19.7794C22.7623 18.3829 21.9682 16.5206 21.8281 14.5372C21.6786 12.4214 22.324 10.4758 23.6449 9.05781C24.9657 7.63984 26.8125 6.875 28.875 6.875C30.9229 6.875 32.7749 7.65359 34.0914 9.06812C35.4209 10.4964 36.068 12.4386 35.9185 14.5363C35.7749 16.5223 34.9817 18.3837 33.6841 19.7785C32.3503 21.2111 30.6428 22 28.875 22Z" fill="#C4C4C4"/>
<path d="M40.2041 37.125H17.5467C17.1824 37.127 16.8226 37.0453 16.4948 36.8863C16.167 36.7274 15.8801 36.4953 15.6561 36.208C15.4185 35.8966 15.2544 35.5355 15.1761 35.1517C15.0978 34.7679 15.1074 34.3713 15.2041 33.9917C15.9277 31.0862 17.7203 28.6765 20.3878 27.0239C22.7554 25.5578 25.7692 24.75 28.875 24.75C32.0418 24.75 34.9765 25.5234 37.3579 26.9887C40.0314 28.6327 41.8266 31.0561 42.5468 33.9969C42.6423 34.3768 42.6508 34.7733 42.5716 35.1569C42.4925 35.5405 42.3277 35.9013 42.0896 36.2123C41.8658 36.4983 41.5795 36.7292 41.2527 36.8874C40.9259 37.0456 40.5672 37.1269 40.2041 37.125Z" fill="#C4C4C4"/>
<path d="M12.6328 22.3438C9.60867 22.3438 6.94976 19.5319 6.70312 16.0763C6.58109 14.306 7.13281 12.6689 8.25 11.4684C9.35515 10.2798 10.9141 9.625 12.6328 9.625C14.3516 9.625 15.8984 10.2833 17.0096 11.4787C18.1354 12.6887 18.6854 14.3223 18.5565 16.078C18.3098 19.5327 15.6518 22.3438 12.6328 22.3438Z" fill="#C4C4C4"/>
<path d="M18.2755 25.0465C16.7639 24.3074 14.8019 23.9379 12.6337 23.9379C10.102 23.9379 7.64331 24.5979 5.70971 25.7958C3.51745 27.1562 2.04276 29.1371 1.44721 31.5287C1.36006 31.8727 1.35182 32.232 1.4231 32.5796C1.49438 32.9273 1.64335 33.2543 1.85885 33.5362C2.06334 33.7987 2.32531 34.0109 2.62461 34.1563C2.92392 34.3017 3.25258 34.3765 3.58534 34.375H13.1244C13.2854 34.375 13.4413 34.3184 13.5649 34.2153C13.6885 34.1121 13.7719 33.9688 13.8007 33.8104C13.8102 33.7562 13.8222 33.7021 13.836 33.6488C14.5647 30.7218 16.2723 28.2485 18.7954 26.4455C18.8882 26.3786 18.9629 26.2896 19.0126 26.1866C19.0623 26.0836 19.0855 25.9698 19.0801 25.8555C19.0748 25.7412 19.041 25.6301 18.9818 25.5322C18.9226 25.4343 18.8399 25.3527 18.7413 25.2948C18.6063 25.2158 18.4517 25.1324 18.2755 25.0465Z" fill="#C4C4C4"/>
</svg>
