<svg id="Layer_1" data-name="Layer 1" xmlns="http://www.w3.org/2000/svg" viewBox="0 0 24 24"><defs><style>.cls-1{fill:#4f46e5;}</style></defs><title>Artboard 1</title><path class="cls-1" d="M21.23,14.37a2.26,2.26,0,0,0-.83-.79,1.55,1.55,0,0,1-.63-.64,1.82,1.82,0,0,1,.65-2.5,2,2,0,0,0,.76-2.83l-.69-1.18a2.11,2.11,0,0,0-2.87-.76A2,2,0,0,1,15.05,5a1.51,1.51,0,0,1-.24-.88A1.81,1.81,0,0,0,14.54,3a2.16,2.16,0,0,0-1.82-1H11.28A2.19,2.19,0,0,0,9.47,3,1.75,1.75,0,0,0,9.18,4.1,1.57,1.57,0,0,1,9,5a2,2,0,0,1-2.57.69,2.12,2.12,0,0,0-2.88.76L2.81,7.61a2,2,0,0,0,.76,2.83,1.82,1.82,0,0,1,.66,2.5,1.58,1.58,0,0,1-.64.64,2.15,2.15,0,0,0-.82.79,2,2,0,0,0,0,2.05l.71,1.2a2.11,2.11,0,0,0,2.9.74,1.59,1.59,0,0,1,.9-.23A1.89,1.89,0,0,1,9.18,20,2.07,2.07,0,0,0,11.31,22H12.7A2.07,2.07,0,0,0,14.81,20a1.91,1.91,0,0,1,1.89-1.82,1.61,1.61,0,0,1,.9.23,2.16,2.16,0,0,0,1.09.3,2.11,2.11,0,0,0,1.8-1l.72-1.2A2,2,0,0,0,21.23,14.37Zm-9.17,1.32A3.73,3.73,0,1,1,15.85,12,3.73,3.73,0,0,1,12.06,15.69Z"/></svg>