<svg width="181" height="42" viewBox="0 0 181 42" fill="none" xmlns="http://www.w3.org/2000/svg">
<path d="M9.24374 11.0562C11.4937 11.0562 13.3125 12.875 13.3125 15.125C13.3125 17.375 11.4937 19.2125 9.24374 19.2125C6.99374 19.2125 5.17499 17.3937 5.17499 15.1437C5.17499 12.8937 6.99374 11.0562 9.24374 11.0562ZM20.7937 28.2125H15.6937L18.075 24.1063C18.5625 23.2438 18.2625 22.1562 17.4187 21.6688C16.575 21.1813 15.4875 21.4813 15 22.325L12.6187 26.4313L9.07499 20.3563C8.73749 19.7188 8.06249 19.4 7.21874 19.4C7.10624 19.4 6.86249 19.4375 6.73124 19.475C6.61874 19.4938 6.44999 19.55 6.31874 19.5875C2.90624 20.7125 0.206238 26.1688 0.206238 31.8125C0.299988 31.8125 8.39999 31.8125 10.4625 31.8125C10.3875 31.7 10.3125 31.6063 10.2375 31.4938L6.13124 24.4062C5.99999 24.1625 6.09374 23.8438 6.31874 23.7125C6.56249 23.5813 6.88124 23.675 7.01249 23.9L11.0812 30.9313C11.3812 31.4563 11.9437 31.8125 12.6 31.8125H20.7937C21.7875 31.8125 22.575 31.0063 22.575 30.0312C22.5937 29 21.7687 28.2125 20.7937 28.2125ZM18.3045 10.3202L17.6214 8.1875H21.5256L20.6884 10.3202H18.3045ZM15.3125 14.8104C15.3125 13.1623 16.2246 11.7391 17.595 11.0296H21.5035C22.874 11.7391 23.8125 13.1623 23.8125 14.8104C23.8125 17.1458 21.9089 19.0494 19.5735 19.0494C17.2116 19.0494 15.3125 17.1458 15.3125 14.8104ZM19.9568 15.8282C19.9568 16.0794 19.7277 16.2072 19.3972 16.2072C19.0139 16.2072 18.6614 16.0794 18.4058 15.9516L18.2296 16.6346C18.4543 16.7623 18.8376 16.8637 19.243 16.8901V17.4497H19.8246V16.8417C20.512 16.7403 20.891 16.2821 20.891 15.7489C20.891 15.2157 20.609 14.8897 19.8995 14.6341C19.3928 14.4579 19.1901 14.3301 19.1901 14.1274C19.1901 13.9732 19.3179 13.7969 19.6969 13.7969C20.1287 13.7969 20.4063 13.9247 20.5605 13.9996L20.7367 13.3387C20.534 13.2373 20.2785 13.1624 19.8731 13.136V12.6028H19.2915V13.158C18.657 13.2858 18.2781 13.6912 18.2781 14.2243C18.2781 14.8104 18.7099 15.1144 19.3444 15.3171C19.7762 15.4713 19.9789 15.5991 19.9568 15.8282Z" fill="#4F46E5"/>
<mask id="mask0_8_11" style="mask-type:alpha" maskUnits="userSpaceOnUse" x="0" y="8" width="24" height="24">
<path d="M9.24374 11.0562C11.4937 11.0562 13.3125 12.875 13.3125 15.125C13.3125 17.375 11.4937 19.2125 9.24374 19.2125C6.99374 19.2125 5.17499 17.3937 5.17499 15.1437C5.17499 12.8937 6.99374 11.0562 9.24374 11.0562ZM20.7937 28.2125H15.6937L18.075 24.1063C18.5625 23.2438 18.2625 22.1562 17.4187 21.6688C16.575 21.1813 15.4875 21.4813 15 22.325L12.6187 26.4313L9.07499 20.3563C8.73749 19.7188 8.06249 19.4 7.21874 19.4C7.10624 19.4 6.86249 19.4375 6.73124 19.475C6.61874 19.4938 6.44999 19.55 6.31874 19.5875C2.90624 20.7125 0.206238 26.1688 0.206238 31.8125C0.299988 31.8125 8.39999 31.8125 10.4625 31.8125C10.3875 31.7 10.3125 31.6063 10.2375 31.4938L6.13124 24.4062C5.99999 24.1625 6.09374 23.8438 6.31874 23.7125C6.56249 23.5813 6.88124 23.675 7.01249 23.9L11.0812 30.9313C11.3812 31.4563 11.9437 31.8125 12.6 31.8125H20.7937C21.7875 31.8125 22.575 31.0063 22.575 30.0312C22.5937 29 21.7687 28.2125 20.7937 28.2125ZM18.3045 10.3202L17.6214 8.1875H21.5256L20.6884 10.3202H18.3045ZM15.3125 14.8104C15.3125 13.1623 16.2246 11.7391 17.595 11.0296H21.5035C22.874 11.7391 23.8125 13.1623 23.8125 14.8104C23.8125 17.1458 21.9089 19.0494 19.5735 19.0494C17.2116 19.0494 15.3125 17.1458 15.3125 14.8104ZM19.9568 15.8282C19.9568 16.0794 19.7277 16.2072 19.3972 16.2072C19.0139 16.2072 18.6614 16.0794 18.4058 15.9516L18.2296 16.6346C18.4543 16.7623 18.8376 16.8637 19.243 16.8901V17.4497H19.8246V16.8417C20.512 16.7403 20.891 16.2821 20.891 15.7489C20.891 15.2157 20.609 14.8897 19.8995 14.6341C19.3928 14.4579 19.1901 14.3301 19.1901 14.1274C19.1901 13.9732 19.3179 13.7969 19.6969 13.7969C20.1287 13.7969 20.4063 13.9247 20.5605 13.9996L20.7367 13.3387C20.534 13.2373 20.2785 13.1624 19.8731 13.136V12.6028H19.2915V13.158C18.657 13.2858 18.2781 13.6912 18.2781 14.2243C18.2781 14.8104 18.7099 15.1144 19.3444 15.3171C19.7762 15.4713 19.9789 15.5991 19.9568 15.8282Z" fill="#4F46E5"/>
</mask>
<g mask="url(#mask0_8_11)">
<rect x="14" y="8" width="11" height="12" fill="#24B1C5"/>
</g>
<path d="M50.24 11.456V31H46.32V18.288L41.084 31H38.116L32.852 18.288V31H28.932V11.456H33.384L39.6 25.988L45.816 11.456H50.24ZM61.0036 31.252C59.5103 31.252 58.1663 30.9253 56.9716 30.272C55.7769 29.6 54.8343 28.6573 54.1436 27.444C53.4716 26.2307 53.1356 24.8307 53.1356 23.244C53.1356 21.6573 53.4809 20.2573 54.1716 19.044C54.8809 17.8307 55.8423 16.8973 57.0556 16.244C58.2689 15.572 59.6223 15.236 61.1156 15.236C62.6089 15.236 63.9623 15.572 65.1756 16.244C66.3889 16.8973 67.3409 17.8307 68.0316 19.044C68.7409 20.2573 69.0956 21.6573 69.0956 23.244C69.0956 24.8307 68.7316 26.2307 68.0036 27.444C67.2943 28.6573 66.3236 29.6 65.0916 30.272C63.8783 30.9253 62.5156 31.252 61.0036 31.252ZM61.0036 27.836C61.7129 27.836 62.3756 27.668 62.9916 27.332C63.6263 26.9773 64.1303 26.4547 64.5036 25.764C64.8769 25.0733 65.0636 24.2333 65.0636 23.244C65.0636 21.7693 64.6716 20.64 63.8876 19.856C63.1223 19.0533 62.1796 18.652 61.0596 18.652C59.9396 18.652 58.9969 19.0533 58.2316 19.856C57.4849 20.64 57.1116 21.7693 57.1116 23.244C57.1116 24.7187 57.4756 25.8573 58.2036 26.66C58.9503 27.444 59.8836 27.836 61.0036 27.836ZM81.1551 31L75.8911 24.392V31H71.9711V10.28H75.8911V22.068L81.0991 15.488H86.1951L79.3631 23.272L86.2511 31H81.1551ZM92.2426 10.28V31H88.3226V10.28H92.2426ZM110.536 22.908C110.536 23.468 110.498 23.972 110.424 24.42H99.0836C99.1769 25.54 99.5689 26.4173 100.26 27.052C100.95 27.6867 101.8 28.004 102.808 28.004C104.264 28.004 105.3 27.3787 105.916 26.128H110.144C109.696 27.6213 108.837 28.8533 107.568 29.824C106.298 30.776 104.74 31.252 102.892 31.252C101.398 31.252 100.054 30.9253 98.8596 30.272C97.6836 29.6 96.7596 28.6573 96.0876 27.444C95.4343 26.2307 95.1076 24.8307 95.1076 23.244C95.1076 21.6387 95.4343 20.2293 96.0876 19.016C96.7409 17.8027 97.6556 16.8693 98.8316 16.216C100.008 15.5627 101.361 15.236 102.892 15.236C104.366 15.236 105.682 15.5533 106.84 16.188C108.016 16.8227 108.921 17.728 109.556 18.904C110.209 20.0613 110.536 21.396 110.536 22.908ZM106.476 21.788C106.457 20.78 106.093 19.9773 105.384 19.38C104.674 18.764 103.806 18.456 102.78 18.456C101.809 18.456 100.988 18.7547 100.316 19.352C99.6623 19.9307 99.2609 20.7427 99.1116 21.788H106.476ZM117.961 18.708V26.212C117.961 26.7347 118.082 27.1173 118.325 27.36C118.586 27.584 119.016 27.696 119.613 27.696H121.433V31H118.969C115.665 31 114.013 29.3947 114.013 26.184V18.708H112.165V15.488H114.013V11.652H117.961V15.488H121.433V18.708H117.961Z" fill="#4F46E5"/>
<path d="M137.672 31.196C136.31 31.196 135.078 30.9627 133.976 30.496C132.894 30.0293 132.035 29.3573 131.4 28.48C130.766 27.6027 130.439 26.5667 130.42 25.372H134.62C134.676 26.1747 134.956 26.8093 135.46 27.276C135.983 27.7427 136.692 27.976 137.588 27.976C138.503 27.976 139.222 27.7613 139.744 27.332C140.267 26.884 140.528 26.3053 140.528 25.596C140.528 25.0173 140.351 24.5413 139.996 24.168C139.642 23.7947 139.194 23.5053 138.652 23.3C138.13 23.076 137.402 22.8333 136.468 22.572C135.199 22.1987 134.163 21.8347 133.36 21.48C132.576 21.1067 131.895 20.556 131.316 19.828C130.756 19.0813 130.476 18.092 130.476 16.86C130.476 15.7027 130.766 14.6947 131.344 13.836C131.923 12.9773 132.735 12.324 133.78 11.876C134.826 11.4093 136.02 11.176 137.364 11.176C139.38 11.176 141.014 11.6707 142.264 12.66C143.534 13.6307 144.234 14.9933 144.364 16.748H140.052C140.015 16.076 139.726 15.5253 139.184 15.096C138.662 14.648 137.962 14.424 137.084 14.424C136.319 14.424 135.703 14.62 135.236 15.012C134.788 15.404 134.564 15.9733 134.564 16.72C134.564 17.2427 134.732 17.6813 135.068 18.036C135.423 18.372 135.852 18.652 136.356 18.876C136.879 19.0813 137.607 19.324 138.54 19.604C139.81 19.9773 140.846 20.3507 141.648 20.724C142.451 21.0973 143.142 21.6573 143.72 22.404C144.299 23.1507 144.588 24.1307 144.588 25.344C144.588 26.3893 144.318 27.36 143.776 28.256C143.235 29.152 142.442 29.8707 141.396 30.412C140.351 30.9347 139.11 31.196 137.672 31.196ZM162.239 17.504C162.239 18.5493 161.987 19.5293 161.483 20.444C160.997 21.3587 160.223 22.096 159.159 22.656C158.113 23.216 156.788 23.496 155.183 23.496H151.907V31H147.987V11.456H155.183C156.695 11.456 157.983 11.7173 159.047 12.24C160.111 12.7627 160.904 13.4813 161.427 14.396C161.968 15.3107 162.239 16.3467 162.239 17.504ZM155.015 20.332C156.097 20.332 156.9 20.0893 157.423 19.604C157.945 19.1 158.207 18.4 158.207 17.504C158.207 15.6 157.143 14.648 155.015 14.648H151.907V20.332H155.015ZM179.274 17.504C179.274 18.5493 179.022 19.5293 178.518 20.444C178.033 21.3587 177.258 22.096 176.194 22.656C175.149 23.216 173.823 23.496 172.218 23.496H168.942V31H165.022V11.456H172.218C173.73 11.456 175.018 11.7173 176.082 12.24C177.146 12.7627 177.939 13.4813 178.462 14.396C179.003 15.3107 179.274 16.3467 179.274 17.504ZM172.05 20.332C173.133 20.332 173.935 20.0893 174.458 19.604C174.981 19.1 175.242 18.4 175.242 17.504C175.242 15.6 174.178 14.648 172.05 14.648H168.942V20.332H172.05Z" fill="#817BE9"/>
</svg>
