<svg width="16" height="16" viewBox="0 0 16 16" fill="none" xmlns="http://www.w3.org/2000/svg">
<path fill-rule="evenodd" clip-rule="evenodd" d="M13.5247 3.49532C13.7841 3.49532 14 3.71065 14 3.98465V4.23798C14 4.50531 13.7841 4.72731 13.5247 4.72731H2.4759C2.21591 4.72731 2 4.50531 2 4.23798V3.98465C2 3.71065 2.21591 3.49532 2.4759 3.49532H4.41971C4.81457 3.49532 5.1582 3.21466 5.24703 2.81866L5.34882 2.364C5.50702 1.74467 6.02766 1.33334 6.62351 1.33334H9.37649C9.96585 1.33334 10.4923 1.74467 10.6447 2.33133L10.7536 2.818C10.8418 3.21466 11.1854 3.49532 11.5809 3.49532H13.5247ZM12.5372 12.756C12.7402 10.8647 13.0955 6.37143 13.0955 6.32609C13.1084 6.18876 13.0637 6.05876 12.9749 5.9541C12.8796 5.8561 12.759 5.7981 12.626 5.7981H3.37901C3.24545 5.7981 3.11837 5.8561 3.03019 5.9541C2.94072 6.05876 2.89663 6.18876 2.90311 6.32609C2.9043 6.33442 2.91705 6.4927 2.93837 6.75731C3.03306 7.93282 3.29678 11.2068 3.46719 12.756C3.58779 13.8974 4.33665 14.6147 5.42137 14.6407C6.25842 14.66 7.12075 14.6667 8.00253 14.6667C8.83309 14.6667 9.67662 14.66 10.5396 14.6407C11.6619 14.6213 12.4101 13.9167 12.5372 12.756Z" fill="#423DDB"/>
</svg>
