<svg width="16" height="16" viewBox="0 0 16 16" fill="none" xmlns="http://www.w3.org/2000/svg">
<path fill-rule="evenodd" clip-rule="evenodd" d="M3.02659 1.33334H5.27992C6.21992 1.33334 6.97325 2.10001 6.97325 3.04068V5.31334C6.97325 6.26001 6.21992 7.02001 5.27992 7.02001H3.02659C2.09325 7.02001 1.33325 6.26001 1.33325 5.31334V3.04068C1.33325 2.10001 2.09325 1.33334 3.02659 1.33334ZM3.02659 8.97981H5.27992C6.21992 8.97981 6.97325 9.74048 6.97325 10.6871V12.9598C6.97325 13.8998 6.21992 14.6665 5.27992 14.6665H3.02659C2.09325 14.6665 1.33325 13.8998 1.33325 12.9598V10.6871C1.33325 9.74048 2.09325 8.97981 3.02659 8.97981ZM12.9733 1.33334H10.72C9.77999 1.33334 9.02665 2.10001 9.02665 3.04068V5.31334C9.02665 6.26001 9.77999 7.02001 10.72 7.02001H12.9733C13.9067 7.02001 14.6667 6.26001 14.6667 5.31334V3.04068C14.6667 2.10001 13.9067 1.33334 12.9733 1.33334ZM10.72 8.97981H12.9733C13.9067 8.97981 14.6667 9.74048 14.6667 10.6871V12.9598C14.6667 13.8998 13.9067 14.6665 12.9733 14.6665H10.72C9.77999 14.6665 9.02665 13.8998 9.02665 12.9598V10.6871C9.02665 9.74048 9.77999 8.97981 10.72 8.97981Z" fill="#423DDB"/>
</svg>
